<?xml version="1.0" encoding="utf-8"?>
<!-- Generator: Adobe Illustrator 25.4.1, SVG Export Plug-In . SVG Version: 6.00 Build 0)  -->
<svg version="1.1" xmlns="http://www.w3.org/2000/svg" xmlns:xlink="http://www.w3.org/1999/xlink" x="0px" y="0px"
	 viewBox="0 0 612 429.8" style="enable-background:new 0 0 612 429.8;" xml:space="preserve">
<style type="text/css">
	.st0{fill:url(#SVGID_1_);stroke:#000000;stroke-miterlimit:10;}
	.st1{fill:url(#SVGID_00000075858774708800916290000014871531756925381271_);stroke:#000000;stroke-miterlimit:10;}
	.st2{fill:url(#SVGID_00000082354679357706107880000000304098099513608866_);stroke:#000000;stroke-miterlimit:10;}
	.st3{fill:#DDDDDD;stroke:#000000;stroke-miterlimit:10;}
	.st4{fill:url(#SVGID_00000072994586345614656120000005764426169124246179_);stroke:#000000;stroke-miterlimit:10;}
	.st5{fill:url(#SVGID_00000163068914618280677780000011356778952452345776_);stroke:#000000;stroke-miterlimit:10;}
	.st6{fill:#FFFFFF;stroke:#000000;stroke-miterlimit:10;}
	.st7{fill:#F7EC13;}
	.st8{fill:#F57E20;}
	.st9{fill:#FFFFFF;}
</style>
<g id="Layer_1">
	<linearGradient id="SVGID_1_" gradientUnits="userSpaceOnUse" x1="413.7166" y1="317.6907" x2="413.7166" y2="45.9188">
		<stop  offset="0" style="stop-color:#FFFFFF"/>
		<stop  offset="0.111" style="stop-color:#EAEAF3"/>
		<stop  offset="0.5074" style="stop-color:#A4A1CB"/>
		<stop  offset="0.5659" style="stop-color:#9E9BC8"/>
		<stop  offset="0.6532" style="stop-color:#8E8BBF"/>
		<stop  offset="0.7585" style="stop-color:#7674B1"/>
		<stop  offset="0.8779" style="stop-color:#5558A1"/>
		<stop  offset="1" style="stop-color:#2B3990"/>
	</linearGradient>
	<path class="st0" d="M530,72.9C511,78.9,490.7,82,474.1,93c-10.2,6.8-18.6,16.2-29.4,22.1c-22.7,12.4-50.8,6.4-76.1,11.5
		c-28.3,5.8-51.6,25-74.2,43c-25.7,20.4-52,40-79,58.7c11.8,7.7,24.3,14.7,35.8,22.6c11,7.5,21.3,16.1,33.2,22.1
		c10.7,5.4,22.5,8.6,33.9,12.4c21.8,7.4,42.7,17.7,62,30.4c11.4-0.8,22.8-1.9,34.1-3c66.3-6.3,132.9-12.6,197.6-28.2V44.1
		C583.6,48.4,557.6,64,530,72.9z"/>
	
		<linearGradient id="SVGID_00000044893994966820803720000009805793171832848539_" gradientUnits="userSpaceOnUse" x1="306" y1="228.5148" x2="306" y2="0">
		<stop  offset="0.1798" style="stop-color:#F26522"/>
		<stop  offset="0.29" style="stop-color:#F58753"/>
		<stop  offset="0.4225" style="stop-color:#F8AB87"/>
		<stop  offset="0.5529" style="stop-color:#FAC9B2"/>
		<stop  offset="0.6783" style="stop-color:#FCE1D4"/>
		<stop  offset="0.7973" style="stop-color:#FEF1EC"/>
		<stop  offset="0.9075" style="stop-color:#FFFCFA"/>
		<stop  offset="1" style="stop-color:#FFFFFF"/>
	</linearGradient>
	<path style="fill:url(#SVGID_00000044893994966820803720000009805793171832848539_);stroke:#000000;stroke-miterlimit:10;" d="M0,0
		v137.5c44.7,1.8,89.1,7.6,132.8,17.3c9.5,2.1,19.3,4.6,26.8,10.8c9.2,7.6,13.5,19.5,19.9,29.5c9,14,21.9,24.3,36,33.5
		c27-18.7,53.3-38.3,79-58.7c22.6-18,45.9-37.3,74.2-43c25.3-5.2,53.4,0.9,76.1-11.5c10.8-5.9,19.1-15.3,29.4-22.1
		c16.6-10.9,36.9-14,55.8-20.1c27.6-8.9,53.7-24.5,82-28.7V0H0z"/>
	
		<linearGradient id="SVGID_00000120547555140305267030000000817934723040025752_" gradientUnits="userSpaceOnUse" x1="215.4332" y1="180.0093" x2="612" y2="180.0093">
		<stop  offset="0" style="stop-color:#FFFFFF"/>
		<stop  offset="0.111" style="stop-color:#EAEAF3"/>
		<stop  offset="0.5074" style="stop-color:#A4A1CB"/>
		<stop  offset="0.5659" style="stop-color:#9E9BC8"/>
		<stop  offset="0.6532" style="stop-color:#8E8BBF"/>
		<stop  offset="0.7585" style="stop-color:#7674B1"/>
		<stop  offset="0.8779" style="stop-color:#5558A1"/>
		<stop  offset="1" style="stop-color:#2B3990"/>
	</linearGradient>
	<path style="fill:url(#SVGID_00000120547555140305267030000000817934723040025752_);stroke:#000000;stroke-miterlimit:10;" d="
		M530,72.9C511,78.9,490.7,82,474.1,93c-10.2,6.8-18.6,16.2-29.4,22.1c-22.7,12.4-50.8,6.4-76.1,11.5c-28.3,5.8-51.6,25-74.2,43
		c-25.7,20.4-52,40-79,58.7c11.8,7.7,24.3,14.7,35.8,22.6c11,7.5,21.3,16.1,33.2,22.1c10.7,5.4,22.5,8.6,33.9,12.4
		c21.8,7.4,42.7,17.7,62,30.4c11.4-0.8,22.8-1.9,34.1-3c66.3-6.3,132.9-12.6,197.6-28.2V44.1C583.6,48.4,557.6,64,530,72.9z
		 M328.9,239.6c-5.2-0.3-10.8-1.2-14.6-4.7c-2.2-2-3.6-5.1-3-8c1.1-5.4,8-7.1,13.5-7.5c22.4-1.8,45-2.4,67.5-1.7
		C375,232.7,351.8,240.8,328.9,239.6z M528,260.1c-7.5,3.7-16,4.3-24.3,4.9c-12.8,0.9-25.5,1.8-38.3,2.8
		c-16.7,1.2-34.4-2.3-43.5-18.4c-5.3-9.4-3.6-11,7.3-14.4c30.8-9.6,71.8-3,103.4-3c1.3,0,2.7,0,3.9,0.5c3.2,1.1,4.8,4.9,4.9,8.3
		C541.7,249,535.5,256.4,528,260.1z M584,179.8c-0.1,1.3-0.3,2.6-1.1,3.6c-1,1.2-2.6,1.5-4.2,1.8c-26.6,4.2-54.2,2.2-80-5.8
		c-8.4-2.6-16.6-5.8-25.3-7.3c-0.3-3.1,1.7-5.9,3.9-8.1c6.3-6.4,14.5-10.5,22.6-14.4c7.4-3.6,14.9-7.3,23.1-7.9
		c10.7-0.8,16.7,6.5,26.1,8.9c10.7,2.7,23.5-2.7,31.6,7.7C585.3,164.2,584.8,172.4,584,179.8z"/>
	<path class="st3" d="M490.9,367.5c-22.4-1.9-43.5-6.4-65.4-9.5c-68.8-9.6-142-4.6-212.8,0.6c19.8,2.1,39.3,5.1,57.9,9.1
		c-53.3,4.3-107.7,1.9-161.6,1.1c-10.7-0.2-24.5,0.8-26.9,6.1c-1.5,3.3,2.8,6.4,6.8,9.1C60,388.8,30.1,393.7,0,396.3v33.6h612v-68.3
		c-17.1,2.4-34.7,4.2-52.2,5.5C536.9,368.6,513.6,369.4,490.9,367.5z"/>
	
		<linearGradient id="SVGID_00000092435674133837574090000014697798512236246449_" gradientUnits="userSpaceOnUse" x1="0" y1="229.0078" x2="380.2972" y2="229.0078">
		<stop  offset="0" style="stop-color:#FFFFFF"/>
		<stop  offset="0.111" style="stop-color:#EAEAF3"/>
		<stop  offset="0.5074" style="stop-color:#A4A1CB"/>
		<stop  offset="0.5659" style="stop-color:#9E9BC8"/>
		<stop  offset="0.6532" style="stop-color:#8E8BBF"/>
		<stop  offset="0.7585" style="stop-color:#7674B1"/>
		<stop  offset="0.8779" style="stop-color:#5558A1"/>
		<stop  offset="1" style="stop-color:#2B3990"/>
	</linearGradient>
	<path style="fill:url(#SVGID_00000092435674133837574090000014697798512236246449_);stroke:#000000;stroke-miterlimit:10;" d="
		M188.8,309.4c25.7-1.3,51.6-2.5,77.3-0.2c19,1.8,37.7,5.5,56.7,7.1c19.1,1.6,38.3,1.1,57.5-0.2c-19.3-12.7-40.1-23-62-30.4
		c-11.4-3.9-23.1-7-33.9-12.4c-11.9-6-22.2-14.6-33.2-22.1c-11.5-7.9-24-14.9-35.8-22.6c-14-9.2-27-19.4-36-33.5
		c-6.4-10.1-10.7-21.9-19.9-29.5c-7.5-6.2-17.3-8.7-26.8-10.8C89.1,145,44.7,139.3,0,137.5v183c10.9-2.2,22.3-2.9,33.3-3.4
		C85.1,314.5,137,312,188.8,309.4z"/>
	
		<linearGradient id="SVGID_00000091002334775679051510000004006694747486984374_" gradientUnits="userSpaceOnUse" x1="306" y1="396.2518" x2="306" y2="284.9359">
		<stop  offset="0.1798" style="stop-color:#000000"/>
		<stop  offset="0.2648" style="stop-color:#030303"/>
		<stop  offset="0.3398" style="stop-color:#0E0E0E"/>
		<stop  offset="0.411" style="stop-color:#1F2020"/>
		<stop  offset="0.4799" style="stop-color:#38393A"/>
		<stop  offset="0.5465" style="stop-color:#58585A"/>
		<stop  offset="0.5691" style="stop-color:#646567"/>
		<stop  offset="1" style="stop-color:#FFFFFF"/>
	</linearGradient>
	<path style="fill:url(#SVGID_00000091002334775679051510000004006694747486984374_);stroke:#000000;stroke-miterlimit:10;" d="
		M380.3,316.1c-19.2,1.3-38.4,1.9-57.5,0.2c-19-1.6-37.8-5.4-56.7-7.1c-25.7-2.4-51.5-1.1-77.3,0.2c-51.8,2.6-103.6,5.1-155.4,7.7
		c-11.1,0.5-22.5,1.2-33.3,3.4v75.7c30.1-2.6,60-7.4,88.9-12.3c-4-2.7-8.2-5.9-6.8-9.1c2.3-5.2,16.2-6.2,26.9-6.1
		c54,0.9,108.4,3.3,161.6-1.1c-18.6-4-38.1-7-57.9-9.1c70.7-5.1,143.9-10.2,212.8-0.6c21.9,3.1,43,7.6,65.4,9.5
		c22.7,1.9,46.1,1.1,68.9-0.6c17.6-1.3,35.1-3,52.2-5.5v-76.5c-64.7,15.6-131.3,21.9-197.6,28.2
		C403.1,314.2,391.7,315.3,380.3,316.1z"/>
	<g>
		
			<rect x="188.5" y="286.8" transform="matrix(6.123234e-17 -1 1 6.123234e-17 -112.5593 498.7394)" class="st6" width="9.1" height="37.8"/>
		
			<rect x="194.9" y="277.6" transform="matrix(6.123234e-17 -1 1 6.123234e-17 -97.0478 495.9827)" class="st6" width="9.1" height="37.8"/>
		
			<rect x="207.4" y="282.2" transform="matrix(6.123234e-17 -1 1 6.123234e-17 -89.1064 513.0582)" class="st6" width="9.1" height="37.8"/>
		
			<rect x="226.3" y="291.3" transform="matrix(6.123234e-17 -1 1 6.123234e-17 -79.3547 541.0781)" class="st6" width="9.1" height="37.8"/>
		
			<rect x="198.8" y="291.3" transform="matrix(6.123234e-17 -1 1 6.123234e-17 -106.8947 513.538)" class="st6" width="9.1" height="37.8"/>
		<rect x="31.9" y="308.9" class="st6" width="45.9" height="8.9"/>
		<rect x="8" y="308.9" class="st6" width="38" height="8.9"/>
		<rect x="35.9" y="297.9" class="st6" width="30.3" height="11"/>
		<rect x="6" y="298.3" class="st6" width="32" height="10.5"/>
		<rect x="21.7" y="287.9" class="st6" width="31.3" height="10.2"/>
	</g>
</g>
<g id="DEBRIS">
	<g>
		
			<rect x="259" y="72.1" transform="matrix(0.7071 -0.7071 0.7071 0.7071 12.5612 218.1043)" class="st6" width="21.2" height="43.7"/>
		
			<rect x="411.1" y="276.1" transform="matrix(0.7071 0.7071 -0.7071 0.7071 334.1901 -210.9138)" class="st6" width="21.2" height="43.7"/>
		<circle class="st6" cx="441.7" cy="38.8" r="13.3"/>
		<circle class="st6" cx="291" cy="282.9" r="13.3"/>
		<circle class="st6" cx="227.1" cy="160.5" r="7.7"/>
		
			<rect x="107.9" y="78.8" transform="matrix(0.8561 -0.5169 0.5169 0.8561 -23.2032 83.9403)" class="st6" width="62.4" height="9.6"/>
		<rect x="46.2" y="47.3" transform="matrix(0.866 0.5 -0.5 0.866 32.8813 -18.5445)" class="st6" width="9.7" height="9.7"/>
	</g>
</g>
<g id="BUBBLES">
	<a xlink:href="https://www.youtube.com/watch?v=ZV-O3x2o5hg" >
		<g>
			<path class="st6" d="M190.1,327.2c-10.4,0-18.8,8.4-18.8,18.8H209C209,335.6,200.6,327.2,190.1,327.2z"/>
			<path class="st6" d="M170.9,339.4c-5.9,0-10.6,4.8-10.6,10.6h21.3C181.5,344.1,176.8,339.4,170.9,339.4z"/>
			<path class="st6" d="M570.7,308.9c-7.7,0-13.9,6.2-13.9,13.9h27.8C584.6,315.2,578.4,308.9,570.7,308.9z"/>
			<path class="st6" d="M40.5,339c-7.7,0-13.9,6.2-13.9,13.9h27.8C54.4,345.3,48.2,339,40.5,339z"/>
			<path class="st6" d="M532.7,332c-13.3,0-24.1,10.8-24.1,24.1h48.2C556.8,342.8,546,332,532.7,332z"/>
		</g>
	</a>
</g>
<g id="TRACTOR">
	<a xlink:href="https://www.youtube.com/watch?v=w3CrFR1Jk1w" >
		<g>
			<g>
				<path class="st7" d="M92.7,307.1c-1.7,0-3.1-1.4-3.1-3.1v-1.7c0-2.4,2-4.4,4.4-4.4h36.5c1.7,0,3.1,1.4,3.1,3.1v2.3
					c0,2.1-1.7,3.9-3.9,3.9H92.7z"/>
				<path d="M130.5,298.3c1.5,0,2.6,1.2,2.6,2.6v2.3c0,1.9-1.5,3.4-3.4,3.4H92.7c-1.4,0-2.6-1.2-2.6-2.6v-1.7c0-2.2,1.8-3.9,3.9-3.9
					H130.5 M130.5,297.3H94c-2.7,0-4.9,2.2-4.9,4.9v1.7c0,2,1.6,3.6,3.6,3.6h37.1c2.4,0,4.4-2,4.4-4.4V301
					C134.1,299,132.5,297.3,130.5,297.3L130.5,297.3z"/>
			</g>
			<g>
				<path class="st8" d="M96,294.9v-27.2h18.4v13.6c0,0.3,0.2,0.5,0.5,0.5h13.9v13.1H96z"/>
				<path d="M113.8,268.2v13.1c0,0.6,0.4,1,1,1h13.4v12.1H96.5v-5.2v-7.9v-13.1H113.8 M114.8,267.2H95.5v14.1v7.9v6.2h33.7v-14.1
					h-14.4V267.2L114.8,267.2z"/>
			</g>
			<g>
				
					<rect x="121.5" y="281.6" transform="matrix(0.9023 -0.431 0.431 0.9023 -108.9593 87.596)" class="st7" width="34.7" height="5.2"/>
				<g>
					<path d="M153.1,275.1l1.8,3.8l-30.4,14.5l-1.8-3.8L153.1,275.1 M153.6,273.7l-32.2,15.4l2.7,5.6l32.2-15.4L153.6,273.7
						L153.6,273.7z"/>
				</g>
			</g>
			<g>
				<path class="st8" d="M152.7,283v-11h13v2.7h-8.2c-0.3,0-0.5,0.2-0.5,0.5v5c0,0.3,0.2,0.5,0.5,0.5h8.2v2.3H152.7z"/>
				<g>
					<path d="M165.2,272.5v1.7h-7.7c-0.6,0-1,0.4-1,1v5c0,0.6,0.4,1,1,1h7.7v1.3h-12v-10H165.2 M166.2,271.5h-14v12h14v-3.3h-8.7v-5
						h8.7V271.5L166.2,271.5z"/>
				</g>
			</g>
			<g>
				<rect x="105.6" y="272" class="st9" width="8.8" height="8.8"/>
				<path d="M113.8,272.5v7.8h-7.8v-7.8H113.8 M114.8,271.5h-9.8v9.8h9.8V271.5L114.8,271.5z"/>
			</g>
		</g>
	</a>
</g>
<g id="INFO">
	<a xlink:href="https://svgtests.cargo.site/Information" >
		<g>
			<path d="M580.6,416.5h-49.8c-4,0-7.2-3.2-7.2-7.2v-7.9c0-4,3.2-7.2,7.2-7.2h49.8c4,0,7.2,3.2,7.2,7.2v7.9
				C587.7,413.2,584.5,416.5,580.6,416.5z"/>
			<g>
				<path class="st9" d="M536.7,411.7v-12h2.9v12H536.7z"/>
				<path class="st9" d="M546.3,407c-0.6-1.2-1.4-3.2-1.9-4.7l-0.3,0c0.1,1.8,0.2,4.3,0.2,5.8v3.6h-2.7v-12h4.1l2.1,4
					c0.8,1.5,1.6,3.5,2,5l0.3,0c-0.1-1.7-0.2-3.8-0.2-5.3v-3.7h2.7v12h-3.8L546.3,407z"/>
				<path class="st9" d="M557.5,407.9v3.8h-2.9v-12h8.7v2.6h-5.8v3h5.3v2.5H557.5z"/>
				<path class="st9" d="M564.2,405.7c0-3.9,2.3-6.2,6.1-6.2c3.8,0,6.1,2.4,6.1,6.2c0,3.9-2.2,6.3-6.1,6.3
					C566.4,412,564.2,409.6,564.2,405.7z M573.5,405.7c0-2.2-0.9-3.7-3.2-3.7c-2.2,0-3.2,1.5-3.2,3.7c0,2.4,0.9,3.8,3.2,3.8
					C572.5,409.5,573.5,408,573.5,405.7z"/>
			</g>
		</g>
	</a>
</g>
</svg>
